<mxfile host="app.diagrams.net" modified="2024-05-04T22:11:14.157Z" agent="Mozilla/5.0 (X11; Linux x86_64) AppleWebKit/537.36 (KHTML, like Gecko) Chrome/120.0.0.0 Safari/537.36" etag="GIGaX0i-iJVDfcc1SluI" version="24.2.2" type="device">
  <diagram name="Page-1" id="OsAx46ePMv1VqsE-ZP0m">
    <mxGraphModel dx="1434" dy="796" grid="1" gridSize="10" guides="1" tooltips="1" connect="1" arrows="1" fold="1" page="1" pageScale="1" pageWidth="850" pageHeight="1100" math="0" shadow="0">
      <root>
        <mxCell id="0" />
        <mxCell id="1" parent="0" />
        <mxCell id="4RGhnZtyZv_skGVV4lVm-1" value="" style="rounded=0;whiteSpace=wrap;html=1;fontSize=16;" parent="1" vertex="1">
          <mxGeometry x="240" y="320" width="40" height="40" as="geometry" />
        </mxCell>
        <mxCell id="4RGhnZtyZv_skGVV4lVm-2" value="" style="rounded=0;whiteSpace=wrap;html=1;fontSize=16;" parent="1" vertex="1">
          <mxGeometry x="280" y="320" width="40" height="40" as="geometry" />
        </mxCell>
        <mxCell id="4RGhnZtyZv_skGVV4lVm-3" value="" style="rounded=0;whiteSpace=wrap;html=1;fontSize=16;" parent="1" vertex="1">
          <mxGeometry x="320" y="320" width="40" height="40" as="geometry" />
        </mxCell>
        <mxCell id="4RGhnZtyZv_skGVV4lVm-4" value="" style="rounded=0;whiteSpace=wrap;html=1;strokeWidth=2;fontSize=16;" parent="1" vertex="1">
          <mxGeometry x="240" y="400" width="80" height="40" as="geometry" />
        </mxCell>
        <mxCell id="4RGhnZtyZv_skGVV4lVm-7" value="" style="endArrow=none;html=1;rounded=0;entryX=0.25;entryY=0;entryDx=0;entryDy=0;exitX=0.25;exitY=1;exitDx=0;exitDy=0;strokeColor=#666666;fontSize=16;" parent="1" source="4RGhnZtyZv_skGVV4lVm-4" target="4RGhnZtyZv_skGVV4lVm-4" edge="1">
          <mxGeometry width="50" height="50" relative="1" as="geometry">
            <mxPoint x="320" y="510" as="sourcePoint" />
            <mxPoint x="370" y="460" as="targetPoint" />
          </mxGeometry>
        </mxCell>
        <mxCell id="4RGhnZtyZv_skGVV4lVm-8" value="" style="endArrow=none;html=1;rounded=0;exitX=0.5;exitY=0;exitDx=0;exitDy=0;entryX=0.5;entryY=1;entryDx=0;entryDy=0;strokeColor=#666666;fontSize=16;" parent="1" source="4RGhnZtyZv_skGVV4lVm-4" target="4RGhnZtyZv_skGVV4lVm-4" edge="1">
          <mxGeometry width="50" height="50" relative="1" as="geometry">
            <mxPoint x="320" y="510" as="sourcePoint" />
            <mxPoint x="370" y="460" as="targetPoint" />
          </mxGeometry>
        </mxCell>
        <mxCell id="4RGhnZtyZv_skGVV4lVm-9" value="" style="endArrow=none;html=1;rounded=0;exitX=0.75;exitY=0;exitDx=0;exitDy=0;entryX=0.75;entryY=1;entryDx=0;entryDy=0;strokeColor=#666666;fontSize=16;" parent="1" source="4RGhnZtyZv_skGVV4lVm-4" target="4RGhnZtyZv_skGVV4lVm-4" edge="1">
          <mxGeometry width="50" height="50" relative="1" as="geometry">
            <mxPoint x="320" y="510" as="sourcePoint" />
            <mxPoint x="370" y="460" as="targetPoint" />
          </mxGeometry>
        </mxCell>
        <mxCell id="4RGhnZtyZv_skGVV4lVm-10" value="" style="rounded=0;whiteSpace=wrap;html=1;strokeWidth=2;fontSize=16;" parent="1" vertex="1">
          <mxGeometry x="320" y="400" width="80" height="40" as="geometry" />
        </mxCell>
        <mxCell id="4RGhnZtyZv_skGVV4lVm-11" value="" style="endArrow=none;html=1;rounded=0;entryX=0.25;entryY=0;entryDx=0;entryDy=0;exitX=0.25;exitY=1;exitDx=0;exitDy=0;strokeColor=#666666;fontSize=16;" parent="1" source="4RGhnZtyZv_skGVV4lVm-10" target="4RGhnZtyZv_skGVV4lVm-10" edge="1">
          <mxGeometry width="50" height="50" relative="1" as="geometry">
            <mxPoint x="400" y="510" as="sourcePoint" />
            <mxPoint x="450" y="460" as="targetPoint" />
          </mxGeometry>
        </mxCell>
        <mxCell id="4RGhnZtyZv_skGVV4lVm-12" value="" style="endArrow=none;html=1;rounded=0;exitX=0.5;exitY=0;exitDx=0;exitDy=0;entryX=0.5;entryY=1;entryDx=0;entryDy=0;strokeColor=#666666;fontSize=16;" parent="1" source="4RGhnZtyZv_skGVV4lVm-10" target="4RGhnZtyZv_skGVV4lVm-10" edge="1">
          <mxGeometry width="50" height="50" relative="1" as="geometry">
            <mxPoint x="400" y="510" as="sourcePoint" />
            <mxPoint x="450" y="460" as="targetPoint" />
          </mxGeometry>
        </mxCell>
        <mxCell id="4RGhnZtyZv_skGVV4lVm-13" value="" style="endArrow=none;html=1;rounded=0;exitX=0.75;exitY=0;exitDx=0;exitDy=0;entryX=0.75;entryY=1;entryDx=0;entryDy=0;strokeColor=#666666;fontSize=16;" parent="1" source="4RGhnZtyZv_skGVV4lVm-10" target="4RGhnZtyZv_skGVV4lVm-10" edge="1">
          <mxGeometry width="50" height="50" relative="1" as="geometry">
            <mxPoint x="400" y="510" as="sourcePoint" />
            <mxPoint x="450" y="460" as="targetPoint" />
          </mxGeometry>
        </mxCell>
        <mxCell id="4RGhnZtyZv_skGVV4lVm-14" value="" style="rounded=0;whiteSpace=wrap;html=1;strokeWidth=2;fontSize=16;" parent="1" vertex="1">
          <mxGeometry x="400" y="400" width="80" height="40" as="geometry" />
        </mxCell>
        <mxCell id="4RGhnZtyZv_skGVV4lVm-15" value="" style="endArrow=none;html=1;rounded=0;entryX=0.25;entryY=0;entryDx=0;entryDy=0;exitX=0.25;exitY=1;exitDx=0;exitDy=0;strokeColor=#666666;fontSize=16;" parent="1" source="4RGhnZtyZv_skGVV4lVm-14" target="4RGhnZtyZv_skGVV4lVm-14" edge="1">
          <mxGeometry width="50" height="50" relative="1" as="geometry">
            <mxPoint x="480" y="510" as="sourcePoint" />
            <mxPoint x="530" y="460" as="targetPoint" />
          </mxGeometry>
        </mxCell>
        <mxCell id="4RGhnZtyZv_skGVV4lVm-16" value="" style="endArrow=none;html=1;rounded=0;exitX=0.5;exitY=0;exitDx=0;exitDy=0;entryX=0.5;entryY=1;entryDx=0;entryDy=0;strokeColor=#666666;fontSize=16;" parent="1" source="4RGhnZtyZv_skGVV4lVm-14" target="4RGhnZtyZv_skGVV4lVm-14" edge="1">
          <mxGeometry width="50" height="50" relative="1" as="geometry">
            <mxPoint x="480" y="510" as="sourcePoint" />
            <mxPoint x="530" y="460" as="targetPoint" />
          </mxGeometry>
        </mxCell>
        <mxCell id="4RGhnZtyZv_skGVV4lVm-17" value="" style="endArrow=none;html=1;rounded=0;exitX=0.75;exitY=0;exitDx=0;exitDy=0;entryX=0.75;entryY=1;entryDx=0;entryDy=0;strokeColor=#666666;fontSize=16;" parent="1" source="4RGhnZtyZv_skGVV4lVm-14" target="4RGhnZtyZv_skGVV4lVm-14" edge="1">
          <mxGeometry width="50" height="50" relative="1" as="geometry">
            <mxPoint x="480" y="510" as="sourcePoint" />
            <mxPoint x="530" y="460" as="targetPoint" />
          </mxGeometry>
        </mxCell>
        <mxCell id="4RGhnZtyZv_skGVV4lVm-18" value="" style="endArrow=classic;html=1;rounded=0;exitX=0.5;exitY=1;exitDx=0;exitDy=0;entryX=0;entryY=0;entryDx=0;entryDy=0;fontSize=16;" parent="1" source="4RGhnZtyZv_skGVV4lVm-1" target="4RGhnZtyZv_skGVV4lVm-4" edge="1">
          <mxGeometry width="50" height="50" relative="1" as="geometry">
            <mxPoint x="320" y="450" as="sourcePoint" />
            <mxPoint x="370" y="400" as="targetPoint" />
          </mxGeometry>
        </mxCell>
        <mxCell id="4RGhnZtyZv_skGVV4lVm-19" value="" style="endArrow=classic;html=1;rounded=0;exitX=0.5;exitY=1;exitDx=0;exitDy=0;entryX=0;entryY=0;entryDx=0;entryDy=0;fontSize=16;" parent="1" source="4RGhnZtyZv_skGVV4lVm-2" target="4RGhnZtyZv_skGVV4lVm-10" edge="1">
          <mxGeometry width="50" height="50" relative="1" as="geometry">
            <mxPoint x="320" y="450" as="sourcePoint" />
            <mxPoint x="370" y="400" as="targetPoint" />
          </mxGeometry>
        </mxCell>
        <mxCell id="4RGhnZtyZv_skGVV4lVm-20" value="" style="endArrow=classic;html=1;rounded=0;exitX=0.5;exitY=1;exitDx=0;exitDy=0;entryX=1;entryY=0;entryDx=0;entryDy=0;fontSize=16;" parent="1" source="4RGhnZtyZv_skGVV4lVm-3" target="4RGhnZtyZv_skGVV4lVm-10" edge="1">
          <mxGeometry width="50" height="50" relative="1" as="geometry">
            <mxPoint x="320" y="450" as="sourcePoint" />
            <mxPoint x="370" y="400" as="targetPoint" />
          </mxGeometry>
        </mxCell>
        <mxCell id="4RGhnZtyZv_skGVV4lVm-21" value="" style="rounded=0;whiteSpace=wrap;html=1;fontSize=16;" parent="1" vertex="1">
          <mxGeometry x="240" y="160" width="40" height="40" as="geometry" />
        </mxCell>
        <mxCell id="4RGhnZtyZv_skGVV4lVm-22" value="" style="rounded=0;whiteSpace=wrap;html=1;fontSize=16;" parent="1" vertex="1">
          <mxGeometry x="280" y="160" width="40" height="40" as="geometry" />
        </mxCell>
        <mxCell id="4RGhnZtyZv_skGVV4lVm-23" value="" style="rounded=0;whiteSpace=wrap;html=1;fontSize=16;" parent="1" vertex="1">
          <mxGeometry x="320" y="160" width="40" height="40" as="geometry" />
        </mxCell>
        <mxCell id="4RGhnZtyZv_skGVV4lVm-24" value="" style="rounded=0;whiteSpace=wrap;html=1;fontSize=16;" parent="1" vertex="1">
          <mxGeometry x="360" y="320" width="40" height="40" as="geometry" />
        </mxCell>
        <mxCell id="4RGhnZtyZv_skGVV4lVm-25" value="" style="rounded=0;whiteSpace=wrap;html=1;fontSize=16;" parent="1" vertex="1">
          <mxGeometry x="400" y="320" width="40" height="40" as="geometry" />
        </mxCell>
        <mxCell id="4RGhnZtyZv_skGVV4lVm-31" value="" style="rounded=0;whiteSpace=wrap;html=1;strokeWidth=2;fontSize=16;" parent="1" vertex="1">
          <mxGeometry x="480" y="400" width="80" height="40" as="geometry" />
        </mxCell>
        <mxCell id="4RGhnZtyZv_skGVV4lVm-32" value="" style="endArrow=none;html=1;rounded=0;entryX=0.25;entryY=0;entryDx=0;entryDy=0;exitX=0.25;exitY=1;exitDx=0;exitDy=0;strokeColor=#666666;fontSize=16;" parent="1" source="4RGhnZtyZv_skGVV4lVm-31" target="4RGhnZtyZv_skGVV4lVm-31" edge="1">
          <mxGeometry width="50" height="50" relative="1" as="geometry">
            <mxPoint x="560" y="510" as="sourcePoint" />
            <mxPoint x="610" y="460" as="targetPoint" />
          </mxGeometry>
        </mxCell>
        <mxCell id="4RGhnZtyZv_skGVV4lVm-33" value="" style="endArrow=none;html=1;rounded=0;exitX=0.5;exitY=0;exitDx=0;exitDy=0;entryX=0.5;entryY=1;entryDx=0;entryDy=0;strokeColor=#666666;fontSize=16;" parent="1" source="4RGhnZtyZv_skGVV4lVm-31" target="4RGhnZtyZv_skGVV4lVm-31" edge="1">
          <mxGeometry width="50" height="50" relative="1" as="geometry">
            <mxPoint x="560" y="510" as="sourcePoint" />
            <mxPoint x="610" y="460" as="targetPoint" />
          </mxGeometry>
        </mxCell>
        <mxCell id="4RGhnZtyZv_skGVV4lVm-34" value="" style="endArrow=none;html=1;rounded=0;exitX=0.75;exitY=0;exitDx=0;exitDy=0;entryX=0.75;entryY=1;entryDx=0;entryDy=0;strokeColor=#666666;fontSize=16;" parent="1" source="4RGhnZtyZv_skGVV4lVm-31" target="4RGhnZtyZv_skGVV4lVm-31" edge="1">
          <mxGeometry width="50" height="50" relative="1" as="geometry">
            <mxPoint x="560" y="510" as="sourcePoint" />
            <mxPoint x="610" y="460" as="targetPoint" />
          </mxGeometry>
        </mxCell>
        <mxCell id="4RGhnZtyZv_skGVV4lVm-35" value="" style="rounded=0;whiteSpace=wrap;html=1;strokeWidth=2;fontSize=16;" parent="1" vertex="1">
          <mxGeometry x="560" y="400" width="80" height="40" as="geometry" />
        </mxCell>
        <mxCell id="4RGhnZtyZv_skGVV4lVm-36" value="" style="endArrow=none;html=1;rounded=0;entryX=0.25;entryY=0;entryDx=0;entryDy=0;exitX=0.25;exitY=1;exitDx=0;exitDy=0;strokeColor=#666666;fontSize=16;" parent="1" source="4RGhnZtyZv_skGVV4lVm-35" target="4RGhnZtyZv_skGVV4lVm-35" edge="1">
          <mxGeometry width="50" height="50" relative="1" as="geometry">
            <mxPoint x="640" y="510" as="sourcePoint" />
            <mxPoint x="690" y="460" as="targetPoint" />
          </mxGeometry>
        </mxCell>
        <mxCell id="4RGhnZtyZv_skGVV4lVm-37" value="" style="endArrow=none;html=1;rounded=0;exitX=0.5;exitY=0;exitDx=0;exitDy=0;entryX=0.5;entryY=1;entryDx=0;entryDy=0;strokeColor=#666666;fontSize=16;" parent="1" source="4RGhnZtyZv_skGVV4lVm-35" target="4RGhnZtyZv_skGVV4lVm-35" edge="1">
          <mxGeometry width="50" height="50" relative="1" as="geometry">
            <mxPoint x="640" y="510" as="sourcePoint" />
            <mxPoint x="690" y="460" as="targetPoint" />
          </mxGeometry>
        </mxCell>
        <mxCell id="4RGhnZtyZv_skGVV4lVm-38" value="" style="endArrow=none;html=1;rounded=0;exitX=0.75;exitY=0;exitDx=0;exitDy=0;entryX=0.75;entryY=1;entryDx=0;entryDy=0;strokeColor=#666666;fontSize=16;" parent="1" source="4RGhnZtyZv_skGVV4lVm-35" target="4RGhnZtyZv_skGVV4lVm-35" edge="1">
          <mxGeometry width="50" height="50" relative="1" as="geometry">
            <mxPoint x="640" y="510" as="sourcePoint" />
            <mxPoint x="690" y="460" as="targetPoint" />
          </mxGeometry>
        </mxCell>
        <mxCell id="4RGhnZtyZv_skGVV4lVm-39" value="" style="endArrow=classic;html=1;rounded=0;exitX=0.5;exitY=1;exitDx=0;exitDy=0;entryX=1;entryY=0;entryDx=0;entryDy=0;fontSize=16;" parent="1" source="4RGhnZtyZv_skGVV4lVm-24" target="4RGhnZtyZv_skGVV4lVm-14" edge="1">
          <mxGeometry width="50" height="50" relative="1" as="geometry">
            <mxPoint x="320" y="380" as="sourcePoint" />
            <mxPoint x="370" y="330" as="targetPoint" />
          </mxGeometry>
        </mxCell>
        <mxCell id="4RGhnZtyZv_skGVV4lVm-40" value="" style="endArrow=classic;html=1;rounded=0;exitX=0.5;exitY=1;exitDx=0;exitDy=0;entryX=0;entryY=0;entryDx=0;entryDy=0;fontSize=16;" parent="1" source="4RGhnZtyZv_skGVV4lVm-25" target="4RGhnZtyZv_skGVV4lVm-35" edge="1">
          <mxGeometry width="50" height="50" relative="1" as="geometry">
            <mxPoint x="320" y="380" as="sourcePoint" />
            <mxPoint x="370" y="330" as="targetPoint" />
          </mxGeometry>
        </mxCell>
        <mxCell id="4RGhnZtyZv_skGVV4lVm-41" value="&lt;pre style=&quot;font-size: 16px;&quot;&gt;vector&amp;lt;T&amp;gt; vec&lt;/pre&gt;" style="text;html=1;align=center;verticalAlign=middle;whiteSpace=wrap;rounded=0;fontSize=16;" parent="1" vertex="1">
          <mxGeometry x="240" y="130" width="140" height="30" as="geometry" />
        </mxCell>
        <mxCell id="4RGhnZtyZv_skGVV4lVm-59" value="&lt;pre style=&quot;font-size: 16px;&quot;&gt;vector&amp;lt;array&amp;lt;T,N&amp;gt;&amp;gt; var&lt;/pre&gt;" style="text;html=1;align=center;verticalAlign=middle;whiteSpace=wrap;rounded=0;fontSize=16;" parent="1" vertex="1">
          <mxGeometry x="240" y="270" width="210" height="30" as="geometry" />
        </mxCell>
        <mxCell id="4RGhnZtyZv_skGVV4lVm-63" value="" style="rounded=0;whiteSpace=wrap;html=1;fontSize=16;" parent="1" vertex="1">
          <mxGeometry x="200" y="80" width="480" height="40" as="geometry" />
        </mxCell>
        <mxCell id="4RGhnZtyZv_skGVV4lVm-114" value="" style="shape=flexArrow;endArrow=classic;startArrow=classic;html=1;rounded=0;exitX=1;exitY=0.5;exitDx=0;exitDy=0;entryX=0;entryY=0.5;entryDx=0;entryDy=0;fontSize=16;" parent="1" edge="1">
          <mxGeometry width="100" height="100" relative="1" as="geometry">
            <mxPoint x="680" y="340" as="sourcePoint" />
            <mxPoint x="760" y="340" as="targetPoint" />
          </mxGeometry>
        </mxCell>
        <mxCell id="4RGhnZtyZv_skGVV4lVm-115" value="&lt;b style=&quot;font-size: 16px;&quot;&gt;Host&lt;/b&gt;" style="text;html=1;align=center;verticalAlign=middle;whiteSpace=wrap;rounded=0;fontSize=16;" parent="1" vertex="1">
          <mxGeometry x="200" y="80" width="80" height="40" as="geometry" />
        </mxCell>
        <mxCell id="4RGhnZtyZv_skGVV4lVm-122" value="" style="rounded=0;whiteSpace=wrap;html=1;strokeWidth=2;fontSize=16;" parent="1" vertex="1">
          <mxGeometry x="800" y="400" width="80" height="40" as="geometry" />
        </mxCell>
        <mxCell id="4RGhnZtyZv_skGVV4lVm-123" value="" style="endArrow=none;html=1;rounded=0;entryX=0.25;entryY=0;entryDx=0;entryDy=0;exitX=0.25;exitY=1;exitDx=0;exitDy=0;strokeColor=#666666;fontSize=16;" parent="1" source="4RGhnZtyZv_skGVV4lVm-122" target="4RGhnZtyZv_skGVV4lVm-122" edge="1">
          <mxGeometry width="50" height="50" relative="1" as="geometry">
            <mxPoint x="880" y="510" as="sourcePoint" />
            <mxPoint x="930" y="460" as="targetPoint" />
          </mxGeometry>
        </mxCell>
        <mxCell id="4RGhnZtyZv_skGVV4lVm-124" value="" style="endArrow=none;html=1;rounded=0;exitX=0.5;exitY=0;exitDx=0;exitDy=0;entryX=0.5;entryY=1;entryDx=0;entryDy=0;strokeColor=#666666;fontSize=16;" parent="1" source="4RGhnZtyZv_skGVV4lVm-122" target="4RGhnZtyZv_skGVV4lVm-122" edge="1">
          <mxGeometry width="50" height="50" relative="1" as="geometry">
            <mxPoint x="880" y="510" as="sourcePoint" />
            <mxPoint x="930" y="460" as="targetPoint" />
          </mxGeometry>
        </mxCell>
        <mxCell id="4RGhnZtyZv_skGVV4lVm-125" value="" style="endArrow=none;html=1;rounded=0;exitX=0.75;exitY=0;exitDx=0;exitDy=0;entryX=0.75;entryY=1;entryDx=0;entryDy=0;strokeColor=#666666;fontSize=16;" parent="1" source="4RGhnZtyZv_skGVV4lVm-122" target="4RGhnZtyZv_skGVV4lVm-122" edge="1">
          <mxGeometry width="50" height="50" relative="1" as="geometry">
            <mxPoint x="880" y="510" as="sourcePoint" />
            <mxPoint x="930" y="460" as="targetPoint" />
          </mxGeometry>
        </mxCell>
        <mxCell id="4RGhnZtyZv_skGVV4lVm-126" value="" style="rounded=0;whiteSpace=wrap;html=1;strokeWidth=2;fontSize=16;" parent="1" vertex="1">
          <mxGeometry x="880" y="400" width="80" height="40" as="geometry" />
        </mxCell>
        <mxCell id="4RGhnZtyZv_skGVV4lVm-127" value="" style="endArrow=none;html=1;rounded=0;entryX=0.25;entryY=0;entryDx=0;entryDy=0;exitX=0.25;exitY=1;exitDx=0;exitDy=0;strokeColor=#666666;fontSize=16;" parent="1" source="4RGhnZtyZv_skGVV4lVm-126" target="4RGhnZtyZv_skGVV4lVm-126" edge="1">
          <mxGeometry width="50" height="50" relative="1" as="geometry">
            <mxPoint x="960" y="510" as="sourcePoint" />
            <mxPoint x="1010" y="460" as="targetPoint" />
          </mxGeometry>
        </mxCell>
        <mxCell id="4RGhnZtyZv_skGVV4lVm-128" value="" style="endArrow=none;html=1;rounded=0;exitX=0.5;exitY=0;exitDx=0;exitDy=0;entryX=0.5;entryY=1;entryDx=0;entryDy=0;strokeColor=#666666;fontSize=16;" parent="1" source="4RGhnZtyZv_skGVV4lVm-126" target="4RGhnZtyZv_skGVV4lVm-126" edge="1">
          <mxGeometry width="50" height="50" relative="1" as="geometry">
            <mxPoint x="960" y="510" as="sourcePoint" />
            <mxPoint x="1010" y="460" as="targetPoint" />
          </mxGeometry>
        </mxCell>
        <mxCell id="4RGhnZtyZv_skGVV4lVm-129" value="" style="endArrow=none;html=1;rounded=0;exitX=0.75;exitY=0;exitDx=0;exitDy=0;entryX=0.75;entryY=1;entryDx=0;entryDy=0;strokeColor=#666666;fontSize=16;" parent="1" source="4RGhnZtyZv_skGVV4lVm-126" target="4RGhnZtyZv_skGVV4lVm-126" edge="1">
          <mxGeometry width="50" height="50" relative="1" as="geometry">
            <mxPoint x="960" y="510" as="sourcePoint" />
            <mxPoint x="1010" y="460" as="targetPoint" />
          </mxGeometry>
        </mxCell>
        <mxCell id="4RGhnZtyZv_skGVV4lVm-130" value="" style="rounded=0;whiteSpace=wrap;html=1;strokeWidth=2;fontSize=16;" parent="1" vertex="1">
          <mxGeometry x="960" y="400" width="80" height="40" as="geometry" />
        </mxCell>
        <mxCell id="4RGhnZtyZv_skGVV4lVm-131" value="" style="endArrow=none;html=1;rounded=0;entryX=0.25;entryY=0;entryDx=0;entryDy=0;exitX=0.25;exitY=1;exitDx=0;exitDy=0;strokeColor=#666666;fontSize=16;" parent="1" source="4RGhnZtyZv_skGVV4lVm-130" target="4RGhnZtyZv_skGVV4lVm-130" edge="1">
          <mxGeometry width="50" height="50" relative="1" as="geometry">
            <mxPoint x="1040" y="510" as="sourcePoint" />
            <mxPoint x="1090" y="460" as="targetPoint" />
          </mxGeometry>
        </mxCell>
        <mxCell id="4RGhnZtyZv_skGVV4lVm-132" value="" style="endArrow=none;html=1;rounded=0;exitX=0.5;exitY=0;exitDx=0;exitDy=0;entryX=0.5;entryY=1;entryDx=0;entryDy=0;strokeColor=#666666;fontSize=16;" parent="1" source="4RGhnZtyZv_skGVV4lVm-130" target="4RGhnZtyZv_skGVV4lVm-130" edge="1">
          <mxGeometry width="50" height="50" relative="1" as="geometry">
            <mxPoint x="1040" y="510" as="sourcePoint" />
            <mxPoint x="1090" y="460" as="targetPoint" />
          </mxGeometry>
        </mxCell>
        <mxCell id="4RGhnZtyZv_skGVV4lVm-133" value="" style="endArrow=none;html=1;rounded=0;exitX=0.75;exitY=0;exitDx=0;exitDy=0;entryX=0.75;entryY=1;entryDx=0;entryDy=0;strokeColor=#666666;fontSize=16;" parent="1" source="4RGhnZtyZv_skGVV4lVm-130" target="4RGhnZtyZv_skGVV4lVm-130" edge="1">
          <mxGeometry width="50" height="50" relative="1" as="geometry">
            <mxPoint x="1040" y="510" as="sourcePoint" />
            <mxPoint x="1090" y="460" as="targetPoint" />
          </mxGeometry>
        </mxCell>
        <mxCell id="4RGhnZtyZv_skGVV4lVm-142" value="" style="rounded=0;whiteSpace=wrap;html=1;strokeWidth=2;fontSize=16;" parent="1" vertex="1">
          <mxGeometry x="1040" y="400" width="80" height="40" as="geometry" />
        </mxCell>
        <mxCell id="4RGhnZtyZv_skGVV4lVm-143" value="" style="endArrow=none;html=1;rounded=0;entryX=0.25;entryY=0;entryDx=0;entryDy=0;exitX=0.25;exitY=1;exitDx=0;exitDy=0;strokeColor=#666666;fontSize=16;" parent="1" source="4RGhnZtyZv_skGVV4lVm-142" target="4RGhnZtyZv_skGVV4lVm-142" edge="1">
          <mxGeometry width="50" height="50" relative="1" as="geometry">
            <mxPoint x="1120" y="510" as="sourcePoint" />
            <mxPoint x="1170" y="460" as="targetPoint" />
          </mxGeometry>
        </mxCell>
        <mxCell id="4RGhnZtyZv_skGVV4lVm-144" value="" style="endArrow=none;html=1;rounded=0;exitX=0.5;exitY=0;exitDx=0;exitDy=0;entryX=0.5;entryY=1;entryDx=0;entryDy=0;strokeColor=#666666;fontSize=16;" parent="1" source="4RGhnZtyZv_skGVV4lVm-142" target="4RGhnZtyZv_skGVV4lVm-142" edge="1">
          <mxGeometry width="50" height="50" relative="1" as="geometry">
            <mxPoint x="1120" y="510" as="sourcePoint" />
            <mxPoint x="1170" y="460" as="targetPoint" />
          </mxGeometry>
        </mxCell>
        <mxCell id="4RGhnZtyZv_skGVV4lVm-145" value="" style="endArrow=none;html=1;rounded=0;exitX=0.75;exitY=0;exitDx=0;exitDy=0;entryX=0.75;entryY=1;entryDx=0;entryDy=0;strokeColor=#666666;fontSize=16;" parent="1" source="4RGhnZtyZv_skGVV4lVm-142" target="4RGhnZtyZv_skGVV4lVm-142" edge="1">
          <mxGeometry width="50" height="50" relative="1" as="geometry">
            <mxPoint x="1120" y="510" as="sourcePoint" />
            <mxPoint x="1170" y="460" as="targetPoint" />
          </mxGeometry>
        </mxCell>
        <mxCell id="4RGhnZtyZv_skGVV4lVm-146" value="" style="rounded=0;whiteSpace=wrap;html=1;strokeWidth=2;fontSize=16;" parent="1" vertex="1">
          <mxGeometry x="1120" y="400" width="80" height="40" as="geometry" />
        </mxCell>
        <mxCell id="4RGhnZtyZv_skGVV4lVm-147" value="" style="endArrow=none;html=1;rounded=0;entryX=0.25;entryY=0;entryDx=0;entryDy=0;exitX=0.25;exitY=1;exitDx=0;exitDy=0;strokeColor=#666666;fontSize=16;" parent="1" source="4RGhnZtyZv_skGVV4lVm-146" target="4RGhnZtyZv_skGVV4lVm-146" edge="1">
          <mxGeometry width="50" height="50" relative="1" as="geometry">
            <mxPoint x="1200" y="510" as="sourcePoint" />
            <mxPoint x="1250" y="460" as="targetPoint" />
          </mxGeometry>
        </mxCell>
        <mxCell id="4RGhnZtyZv_skGVV4lVm-148" value="" style="endArrow=none;html=1;rounded=0;exitX=0.5;exitY=0;exitDx=0;exitDy=0;entryX=0.5;entryY=1;entryDx=0;entryDy=0;strokeColor=#666666;fontSize=16;" parent="1" source="4RGhnZtyZv_skGVV4lVm-146" target="4RGhnZtyZv_skGVV4lVm-146" edge="1">
          <mxGeometry width="50" height="50" relative="1" as="geometry">
            <mxPoint x="1200" y="510" as="sourcePoint" />
            <mxPoint x="1250" y="460" as="targetPoint" />
          </mxGeometry>
        </mxCell>
        <mxCell id="4RGhnZtyZv_skGVV4lVm-149" value="" style="endArrow=none;html=1;rounded=0;exitX=0.75;exitY=0;exitDx=0;exitDy=0;entryX=0.75;entryY=1;entryDx=0;entryDy=0;strokeColor=#666666;fontSize=16;" parent="1" source="4RGhnZtyZv_skGVV4lVm-146" target="4RGhnZtyZv_skGVV4lVm-146" edge="1">
          <mxGeometry width="50" height="50" relative="1" as="geometry">
            <mxPoint x="1200" y="510" as="sourcePoint" />
            <mxPoint x="1250" y="460" as="targetPoint" />
          </mxGeometry>
        </mxCell>
        <mxCell id="4RGhnZtyZv_skGVV4lVm-164" value="&lt;pre style=&quot;font-size: 16px;&quot;&gt;T* var&lt;/pre&gt;" style="text;html=1;align=center;verticalAlign=middle;whiteSpace=wrap;rounded=0;fontSize=16;" parent="1" vertex="1">
          <mxGeometry x="800" y="370" width="70" height="30" as="geometry" />
        </mxCell>
        <mxCell id="4RGhnZtyZv_skGVV4lVm-166" value="" style="rounded=0;whiteSpace=wrap;html=1;fontSize=16;" parent="1" vertex="1">
          <mxGeometry x="760" y="80" width="480" height="40" as="geometry" />
        </mxCell>
        <mxCell id="4RGhnZtyZv_skGVV4lVm-167" value="&lt;b style=&quot;font-size: 16px;&quot;&gt;Device&lt;/b&gt;" style="text;html=1;align=center;verticalAlign=middle;whiteSpace=wrap;rounded=0;fontSize=16;" parent="1" vertex="1">
          <mxGeometry x="760" y="80" width="80" height="40" as="geometry" />
        </mxCell>
        <mxCell id="4RGhnZtyZv_skGVV4lVm-171" value="&lt;ul style=&quot;font-size: 16px;&quot;&gt;&lt;li style=&quot;font-size: 16px;&quot;&gt;dirty&lt;/li&gt;&lt;li style=&quot;font-size: 16px;&quot;&gt;data_ptr&lt;/li&gt;&lt;li style=&quot;font-size: 16px;&quot;&gt;...&lt;/li&gt;&lt;/ul&gt;" style="text;html=1;align=left;verticalAlign=middle;whiteSpace=wrap;rounded=0;fontSize=16;" parent="1" vertex="1">
          <mxGeometry x="540" y="240" width="100" height="80" as="geometry" />
        </mxCell>
        <mxCell id="4RGhnZtyZv_skGVV4lVm-172" value="" style="whiteSpace=wrap;html=1;aspect=fixed;fillColor=none;fontSize=16;" parent="1" vertex="1">
          <mxGeometry x="560" y="240" width="90" height="90" as="geometry" />
        </mxCell>
        <mxCell id="4RGhnZtyZv_skGVV4lVm-173" value="" style="endArrow=none;dashed=1;html=1;rounded=0;exitX=1;exitY=0;exitDx=0;exitDy=0;entryX=0;entryY=0;entryDx=0;entryDy=0;fontSize=16;" parent="1" source="4RGhnZtyZv_skGVV4lVm-24" target="4RGhnZtyZv_skGVV4lVm-172" edge="1">
          <mxGeometry width="50" height="50" relative="1" as="geometry">
            <mxPoint x="680" y="277.7777777777778" as="sourcePoint" />
            <mxPoint x="710" y="280" as="targetPoint" />
          </mxGeometry>
        </mxCell>
        <mxCell id="4RGhnZtyZv_skGVV4lVm-174" value="" style="endArrow=none;dashed=1;html=1;rounded=0;exitX=1;exitY=1;exitDx=0;exitDy=0;entryX=1;entryY=1;entryDx=0;entryDy=0;fontSize=16;" parent="1" source="4RGhnZtyZv_skGVV4lVm-25" target="4RGhnZtyZv_skGVV4lVm-172" edge="1">
          <mxGeometry width="50" height="50" relative="1" as="geometry">
            <mxPoint x="660" y="330" as="sourcePoint" />
            <mxPoint x="710" y="280" as="targetPoint" />
          </mxGeometry>
        </mxCell>
        <mxCell id="9h21uQT16nxpgoDK0qBe-1" value="" style="rounded=0;whiteSpace=wrap;html=1;fillColor=none;fontSize=16;" parent="1" vertex="1">
          <mxGeometry x="230" y="740" width="480" height="440" as="geometry" />
        </mxCell>
        <mxCell id="9h21uQT16nxpgoDK0qBe-2" value="" style="rounded=0;whiteSpace=wrap;html=1;fillColor=none;fontSize=16;" parent="1" vertex="1">
          <mxGeometry x="760" y="120" width="480" height="360" as="geometry" />
        </mxCell>
        <mxCell id="sxQ22OyMJbCqeppNTlGZ-1" value="" style="rounded=0;whiteSpace=wrap;html=1;fontSize=16;" vertex="1" parent="1">
          <mxGeometry x="360" y="160" width="40" height="40" as="geometry" />
        </mxCell>
        <mxCell id="sxQ22OyMJbCqeppNTlGZ-2" value="" style="rounded=0;whiteSpace=wrap;html=1;fontSize=16;" vertex="1" parent="1">
          <mxGeometry x="800" y="160" width="40" height="40" as="geometry" />
        </mxCell>
        <mxCell id="sxQ22OyMJbCqeppNTlGZ-3" value="" style="rounded=0;whiteSpace=wrap;html=1;fontSize=16;" vertex="1" parent="1">
          <mxGeometry x="840" y="160" width="40" height="40" as="geometry" />
        </mxCell>
        <mxCell id="sxQ22OyMJbCqeppNTlGZ-4" value="" style="rounded=0;whiteSpace=wrap;html=1;fontSize=16;" vertex="1" parent="1">
          <mxGeometry x="880" y="160" width="40" height="40" as="geometry" />
        </mxCell>
        <mxCell id="sxQ22OyMJbCqeppNTlGZ-5" value="&lt;pre style=&quot;font-size: 16px;&quot;&gt;T* vec&lt;/pre&gt;" style="text;html=1;align=center;verticalAlign=middle;whiteSpace=wrap;rounded=0;fontSize=16;" vertex="1" parent="1">
          <mxGeometry x="800" y="130" width="70" height="30" as="geometry" />
        </mxCell>
        <mxCell id="sxQ22OyMJbCqeppNTlGZ-6" value="" style="rounded=0;whiteSpace=wrap;html=1;fontSize=16;" vertex="1" parent="1">
          <mxGeometry x="920" y="160" width="40" height="40" as="geometry" />
        </mxCell>
        <mxCell id="sxQ22OyMJbCqeppNTlGZ-7" value="" style="rounded=0;whiteSpace=wrap;html=1;fillColor=none;fontSize=16;" vertex="1" parent="1">
          <mxGeometry x="200" y="120" width="480" height="360" as="geometry" />
        </mxCell>
      </root>
    </mxGraphModel>
  </diagram>
</mxfile>
